<?xml version="1.0" standalone="no"?>
<!DOCTYPE svg PUBLIC "-//W3C//DTD SVG 20010904//EN"
 "http://www.w3.org/TR/2001/REC-SVG-20010904/DTD/svg10.dtd">
<svg version="1.0" xmlns="http://www.w3.org/2000/svg"
 width="512.000000pt" height="512.000000pt" viewBox="0 0 512.000000 512.000000"
 preserveAspectRatio="xMidYMid meet">
<metadata>
Created by potrace 1.11, written by Peter Selinger 2001-2013
</metadata>
<g transform="translate(0.000000,512.000000) scale(0.100000,-0.100000)"
fill="#000000" stroke="none">
<path d="M5090 5085 c0 -21 -6 -37 -16 -43 -15 -8 -15 -10 1 -15 9 -4 13 -11
10 -17 -4 -6 -11 -8 -16 -5 -15 10 -10 -15 6 -31 17 -17 21 -99 5 -89 -5 3
-10 0 -10 -9 0 -8 4 -16 9 -18 4 -1 11 -68 15 -147 5 -98 4 -141 -3 -137 -6 4
-16 -2 -22 -13 -7 -10 -19 -17 -27 -14 -9 4 -13 0 -11 -13 1 -10 -2 -27 -6
-38 -5 -12 -3 -21 6 -26 21 -13 -32 -23 -62 -12 -17 7 -35 6 -58 -4 -18 -8
-48 -14 -66 -14 -18 0 -38 -7 -45 -15 -7 -8 -19 -15 -27 -15 -7 0 -16 -6 -19
-13 -5 -14 -9 -15 -64 -21 -16 -2 -33 -4 -37 -6 -5 -1 -28 -3 -53 -4 -25 -1
-52 -5 -60 -8 -56 -22 -179 -58 -199 -58 -12 0 -35 -6 -49 -13 -90 -45 -124
-57 -182 -61 -150 -12 -228 -34 -398 -112 -78 -36 -101 -41 -119 -23 -9 9 -20
6 -45 -9 -36 -24 -31 -27 20 -13 25 8 32 7 29 -2 -2 -7 -10 -12 -18 -12 -8 0
-29 -10 -46 -23 -32 -23 -53 -28 -53 -14 0 5 -19 15 -42 23 -33 10 -42 11 -46
1 -2 -7 -21 -21 -41 -31 -20 -11 -55 -37 -77 -58 -21 -21 -71 -66 -109 -101
-39 -35 -89 -82 -112 -104 -25 -24 -47 -37 -54 -32 -7 4 -9 3 -6 -3 4 -5 -5
-16 -18 -23 -14 -7 -25 -17 -25 -22 0 -4 -7 -8 -15 -8 -17 0 -19 -12 -5 -26 8
-8 -5 -27 -42 -65 -29 -30 -65 -69 -80 -87 -15 -18 -31 -31 -36 -29 -4 3 -18
-1 -32 -9 l-25 -15 27 4 c25 4 27 2 22 -22 -4 -14 -12 -30 -18 -36 -7 -5 -21
-22 -30 -37 -10 -16 -24 -28 -30 -28 -7 0 -17 -10 -23 -22 -51 -107 -70 -141
-85 -145 -10 -3 -18 -14 -18 -24 0 -10 -4 -20 -9 -24 -6 -3 -8 12 -6 35 3 29
0 40 -8 37 -22 -7 -35 -48 -26 -79 7 -27 6 -30 -12 -25 -18 5 -20 2 -15 -17 5
-21 1 -24 -34 -30 -22 -3 -40 -10 -40 -15 0 -11 -53 -80 -99 -128 -18 -20 -46
-62 -61 -95 -15 -32 -32 -64 -38 -71 -16 -19 -122 -227 -122 -238 0 -5 -19
-51 -43 -102 -24 -51 -52 -114 -63 -142 -12 -32 -20 -43 -22 -32 -2 10 -9 16
-15 14 -7 -3 -11 -9 -10 -15 1 -5 -4 -16 -12 -22 -20 -17 -20 -172 0 -265 9
-39 18 -154 22 -259 l6 -188 31 -19 c17 -11 46 -23 63 -28 18 -5 40 -16 49
-25 8 -9 19 -14 24 -11 15 9 60 -14 71 -37 32 -71 58 -105 99 -126 50 -27 88
-26 104 3 40 74 70 115 85 115 10 0 26 9 36 20 10 11 29 20 43 20 14 0 41 12
61 27 43 32 36 25 136 138 79 88 159 166 198 194 11 8 48 42 82 76 62 61 117
95 152 95 10 -1 34 -7 54 -14 21 -7 45 -9 57 -5 17 7 25 3 37 -15 8 -13 33
-28 54 -35 21 -6 44 -18 51 -26 7 -8 19 -15 27 -15 8 0 28 -12 44 -27 22 -21
29 -37 29 -65 0 -20 5 -40 10 -43 6 -4 7 -12 1 -22 -5 -10 -5 -29 0 -47 13
-45 13 -189 0 -214 -6 -11 -11 -36 -11 -55 0 -36 -12 -79 -37 -135 -8 -19 -12
-36 -10 -39 7 -6 -19 -87 -46 -141 -17 -35 -25 -42 -41 -37 -12 3 -52 12 -91
19 -38 8 -83 19 -99 25 -31 13 -99 6 -159 -15 -48 -17 -121 -18 -150 -2 -27
14 -245 20 -253 7 -3 -6 -14 -7 -24 -4 -11 4 -22 0 -28 -10 -8 -15 -10 -15
-21 -1 -17 20 -31 20 -31 1 0 -18 -12 -19 -29 -2 -10 10 -15 9 -25 -5 -12 -16
-14 -16 -29 -1 -13 13 -19 14 -31 4 -10 -8 -16 -9 -21 -1 -9 14 -62 13 -88 -2
-12 -7 -38 -17 -57 -23 -19 -6 -34 -15 -33 -20 2 -15 -18 -35 -36 -35 -9 -1
-34 -9 -56 -20 -22 -11 -46 -19 -52 -20 -7 0 -13 -5 -13 -11 0 -6 -9 -9 -20
-6 -13 3 -20 0 -20 -10 0 -10 -6 -13 -22 -8 -18 5 -20 4 -8 -4 16 -11 8 -15
-24 -11 -12 1 -16 -3 -11 -10 5 -9 1 -10 -13 -6 -11 4 -23 2 -27 -4 -3 -5 -1
-10 6 -10 7 0 9 -3 6 -6 -4 -4 -13 -1 -22 6 -13 10 -15 9 -15 -9 0 -13 -4 -19
-11 -16 -5 4 -20 -4 -32 -17 -13 -12 -45 -39 -72 -57 -28 -19 -52 -37 -55 -41
-3 -3 -21 -17 -41 -32 -20 -15 -41 -39 -46 -55 -6 -15 -18 -49 -27 -74 l-17
-46 -77 -7 c-42 -4 -363 -9 -712 -12 -349 -3 -675 -6 -725 -8 l-90 -2 -3 -202
-2 -202 2560 0 2560 0 0 2560 c0 2269 -2 2560 -15 2560 -10 0 -15 -11 -15 -35z
m10 -558 c0 -7 -7 -22 -16 -33 -14 -18 -15 -18 -4 4 6 12 8 22 5 22 -4 0 -3 5
0 10 9 14 15 13 15 -3z m-1730 -581 c0 -3 -4 -8 -10 -11 -5 -3 -10 -1 -10 4 0
6 5 11 10 11 6 0 10 -2 10 -4z m-60 -46 c-32 -24 -42 -14 -11 11 13 11 27 17
30 14 3 -4 -5 -15 -19 -25z m-79 -71 c-5 -13 -10 -19 -10 -12 -1 15 10 45 15
40 3 -2 0 -15 -5 -28z m-1060 -1902 c-5 -23 -13 -33 -29 -35 -18 -3 -22 1 -22
25 0 16 7 39 17 52 15 22 17 22 28 7 8 -10 10 -29 6 -49z m369 -27 c0 -5 -4
-10 -10 -10 -5 0 -10 5 -10 10 0 6 5 10 10 10 6 0 10 -4 10 -10z m-44 -189
c-16 -31 -62 -68 -72 -58 -3 2 5 13 18 23 13 11 31 32 41 47 24 37 33 28 13
-12z m-66 -91 c0 -5 -7 -10 -16 -10 -8 0 -12 5 -9 10 3 6 10 10 16 10 5 0 9
-4 9 -10z m-60 -70 c0 -5 -9 -10 -21 -10 -11 0 -17 5 -14 10 3 6 13 10 21 10
8 0 14 -4 14 -10z m-50 -60 c0 -5 -9 -10 -21 -10 -11 0 -17 5 -14 10 3 6 13
10 21 10 8 0 14 -4 14 -10z m-56 -59 c3 -4 -2 -15 -12 -23 -18 -16 -62 -30
-62 -21 0 10 45 51 57 52 6 1 14 -3 17 -8z"/>
<path d="M5042 5010 c0 -14 2 -19 5 -12 2 6 2 18 0 25 -3 6 -5 1 -5 -13z"/>
<path d="M5048 4944 c2 -13 8 -24 13 -24 14 0 10 37 -4 43 -10 4 -13 -2 -9
-19z"/>
<path d="M2675 3360 c4 -6 11 -8 16 -5 14 9 11 15 -7 15 -8 0 -12 -5 -9 -10z"/>
<path d="M2554 1059 c-4 -7 4 -20 17 -30 15 -11 26 -14 30 -7 4 7 13 7 27 -1
27 -14 32 -14 32 4 0 15 -31 26 -65 22 -12 -1 -19 3 -17 11 3 15 -14 16 -24 1z"/>
<path d="M2500 1040 c-13 -8 -13 -10 2 -10 9 0 18 -6 21 -12 3 -10 7 -10 17
-1 25 23 -9 43 -40 23z"/>
</g>
</svg>
